<svg width="87" height="91" viewBox="0 0 87 91" fill="none" xmlns="http://www.w3.org/2000/svg">
<path fill-rule="evenodd" clip-rule="evenodd" d="M64.3128 2.02004C64.6498 1.47887 65.1397 1.04973 65.7205 0.786872C66.3013 0.524012 66.947 0.439226 67.576 0.543227L84.1563 3.30984C84.9994 3.45045 85.7521 3.92001 86.2491 4.61533C86.7461 5.31065 86.9467 6.17484 86.8069 7.018L84.0467 23.6048C83.9414 24.2335 83.652 24.817 83.2152 25.2813C82.7784 25.7457 82.2138 26.0701 81.5926 26.2137C80.9715 26.3572 80.3217 26.3135 79.7254 26.0878C79.1292 25.8622 78.6132 25.4649 78.2426 24.9462L73.767 18.6907L50.7184 33.4201C49.7355 34.0491 48.5584 34.3015 47.404 34.1308C46.2497 33.9602 45.1959 33.3779 44.4371 32.4915L31.5843 17.4653L7.54893 29.8151C6.40811 30.4018 5.08097 30.5112 3.85946 30.1194C2.63794 29.7275 1.62212 28.8665 1.03546 27.7257C0.448806 26.5849 0.339364 25.2577 0.731216 24.0362C1.12307 22.8147 1.98411 21.7989 3.12493 21.2122L30.5653 7.10829C31.5341 6.61059 32.6425 6.45444 33.7111 6.66511C34.7797 6.87578 35.7459 7.44095 36.4533 8.2691L49.0546 23.005L68.1435 10.8036L64.4225 5.59923C64.0525 5.08025 63.8447 4.46329 63.8252 3.82625C63.8056 3.18922 63.9754 2.56069 64.3128 2.02004ZM22.0978 33.6845L3.38289 44.3898C2.64356 44.8121 2.02881 45.4222 1.60078 46.1582C1.17274 46.8942 0.94659 47.7302 0.945179 48.5817V85.6633C0.945179 88.3332 3.11204 90.5 5.78191 90.5H22.0978V33.6845ZM30.1591 90.5H53.8139V46.5696L43.1795 51.8835L32.5516 33.2847C32.0149 32.3388 31.1739 31.6024 30.1655 31.1952L30.1591 90.5ZM79.9452 90.5H61.8751V42.539L77.7848 34.5809C78.5222 34.2128 79.3414 34.0392 80.1647 34.0766C80.9881 34.114 81.7882 34.3612 82.4892 34.7947C83.1902 35.2282 83.7687 35.8337 84.17 36.5536C84.5712 37.2735 84.7819 38.084 84.7819 38.9082V85.6633C84.7819 86.9461 84.2723 88.1763 83.3653 89.0834C82.4582 89.9904 81.228 90.5 79.9452 90.5Z" fill="#21A038"/>
</svg>
